<svg width="25" height="30" viewBox="0 0 25 30" fill="none" xmlns="http://www.w3.org/2000/svg">
<path d="M9.92504 1.87462C10.1326 1.32075 10.4885 0.846413 10.9473 0.512422C11.406 0.178431 11.9467 0 12.5 0C13.0533 0 13.594 0.178431 14.0527 0.512422C14.5115 0.846413 14.8674 1.32075 15.075 1.87462C17.1287 2.48458 18.9403 3.80575 20.2315 5.63523C21.5226 7.4647 22.222 9.70131 22.2221 12.0016V19.0463L24.7665 23.1679C24.906 23.3938 24.9862 23.6563 24.9984 23.9275C25.0106 24.1987 24.9544 24.4684 24.8357 24.7079C24.7171 24.9473 24.5405 25.1474 24.3248 25.287C24.1091 25.4265 23.8624 25.5002 23.6109 25.5001H17.3124C17.1452 26.7497 16.5667 27.8923 15.6829 28.7187C14.799 29.5451 13.6691 30 12.5 30C11.3309 30 10.201 29.5451 9.31713 28.7187C8.43332 27.8923 7.8548 26.7497 7.68758 25.5001H1.38907C1.13763 25.5002 0.890892 25.4265 0.675184 25.287C0.459477 25.1474 0.282892 24.9473 0.164269 24.7079C0.0456465 24.4684 -0.0105634 24.1987 0.00163587 23.9275C0.0138351 23.6563 0.0939859 23.3938 0.233537 23.1679L2.77794 19.0463V12.0016C2.77794 7.16606 5.80567 3.09249 9.92504 1.87462ZM10.5361 25.5001C10.6796 25.9391 10.9456 26.3191 11.2974 26.588C11.6493 26.8568 12.0697 27.0012 12.5007 27.0012C12.9317 27.0012 13.3521 26.8568 13.704 26.588C14.0558 26.3191 14.3218 25.9391 14.4652 25.5001H10.5348H10.5361ZM12.5 4.50234C10.6582 4.50234 8.89193 5.29244 7.58962 6.69881C6.2873 8.10519 5.55567 10.0126 5.55567 12.0016V19.5008C5.55573 19.797 5.47454 20.0867 5.32234 20.3332L3.98486 22.5005H21.0137L19.6763 20.3332C19.5246 20.0865 19.4439 19.7969 19.4443 19.5008V12.0016C19.4443 10.0126 18.7127 8.10519 17.4104 6.69881C16.1081 5.29244 14.3418 4.50234 12.5 4.50234Z" fill="#030303"/>
</svg>
